<svg width="30" height="30" viewBox="0 0 30 30" fill="none" xmlns="http://www.w3.org/2000/svg">
<path d="M18.525 5.32495C18.2767 5.76956 18.0555 6.22873 17.8625 6.69995C15.9659 6.40001 14.034 6.40001 12.1375 6.69995C11.9445 6.22873 11.7232 5.76956 11.475 5.32495C9.68847 5.6302 7.95174 6.17687 6.31249 6.94995C3.38116 11.1803 2.05178 16.3161 2.56249 21.4375C4.47279 22.8735 6.61681 23.9688 8.89999 24.6749C9.41988 23.9882 9.88387 23.2609 10.2875 22.5C9.54258 22.2253 8.82661 21.8778 8.14999 21.4625C8.33556 21.339 8.51111 21.201 8.67499 21.05C10.6481 22.0003 12.8099 22.4939 15 22.4939C17.19 22.4939 19.3519 22.0003 21.325 21.05C21.5 21.2 21.675 21.3375 21.85 21.4625C21.1697 21.8745 20.4544 22.2259 19.7125 22.5125C20.0994 23.2906 20.551 24.0349 21.0625 24.7375C23.3428 24.0337 25.4831 22.9382 27.3875 21.5C27.9105 16.3777 26.58 11.2377 23.6375 7.01245C22.0166 6.22337 20.2971 5.65579 18.525 5.32495ZM10.85 18.5125C10.2245 18.4675 9.64067 18.1821 9.22114 17.7159C8.80161 17.2498 8.57898 16.6392 8.59999 16.0125C8.57581 15.3848 8.79735 14.7726 9.2175 14.3057C9.63766 13.8389 10.2233 13.5543 10.85 13.5125C11.4767 13.5543 12.0623 13.8389 12.4825 14.3057C12.9026 14.7726 13.1242 15.3848 13.1 16.0125C13.1242 16.6401 12.9026 17.2523 12.4825 17.7192C12.0623 18.186 11.4767 18.4706 10.85 18.5125ZM19.15 18.5125C18.5245 18.4675 17.9407 18.1821 17.5211 17.7159C17.1016 17.2498 16.879 16.6392 16.9 16.0125C16.8758 15.3848 17.0973 14.7726 17.5175 14.3057C17.9377 13.8389 18.5233 13.5543 19.15 13.5125C19.7778 13.5512 20.3654 13.8348 20.7862 14.3024C21.207 14.7699 21.4274 15.384 21.4 16.0125C21.4274 16.6409 21.207 17.255 20.7862 17.7225C20.3654 18.1901 19.7778 18.4737 19.15 18.5125Z" fill="white"/>
</svg>
