<svg width="20" height="21" viewBox="0 0 20 21" fill="none" xmlns="http://www.w3.org/2000/svg">
<path d="M10 0.948242C4.47715 0.948242 0 5.42539 0 10.9482C0 16.4711 4.47715 20.9482 10 20.9482C15.5228 20.9482 20 16.4711 20 10.9482C19.9936 5.42806 15.5202 0.954671 10 0.948242Z" fill="#5243C2" fill-opacity="0.103693"/>
<path d="M15.7725 7.78162L10.0683 15.5224C9.93231 15.7029 9.72945 15.8212 9.50536 15.8507C9.28127 15.8801 9.05475 15.8183 8.87668 15.6791L4.80334 12.4224C4.4439 12.1348 4.3857 11.6102 4.67334 11.2508C4.96099 10.8913 5.48557 10.8331 5.84501 11.1208L9.24168 13.8383L14.4308 6.79578C14.601 6.54044 14.8977 6.39927 15.2032 6.42831C15.5087 6.45736 15.7734 6.65192 15.8924 6.93476C16.0114 7.21759 15.9653 7.54294 15.7725 7.78162Z" fill="#245D51"/>
</svg>
