<svg width="50" height="50" viewBox="0 0 50 50" fill="none" xmlns="http://www.w3.org/2000/svg">
<circle cx="25" cy="25" r="25" fill="#CB8461" fill-opacity="0.19"/>
<path d="M31.75 22.375C31.75 21.2261 30.8156 20.2917 29.6667 20.2917H28.1729L25.6542 16.0948C25.4685 15.787 25.2067 15.5323 24.894 15.3551C24.5813 15.1779 24.2282 15.0843 23.8688 15.0833H18.2083V17.1667H23.8688L25.7438 20.2917H17.1667C16.0177 20.2917 15.0833 21.2261 15.0833 22.375V31.75C15.0833 32.899 16.0177 33.8333 17.1667 33.8333H29.6667C30.8156 33.8333 31.75 32.899 31.75 31.75V28.625L35.9167 30.7083V23.4167L31.75 25.5V22.375ZM29.6688 31.75H17.1667V22.375H29.6667L29.6677 26.5417H29.6667V27.5833L29.6677 27.5844L29.6688 31.75Z" fill="#CB8461"/>
<path d="M19.25 27.5833H25.5V29.6667H19.25V27.5833Z" fill="#CB8461"/>
</svg>
