<svg width="58" height="58" viewBox="0 0 58 58" fill="none" xmlns="http://www.w3.org/2000/svg">
<rect y="12.0918" width="46.7188" height="46.7188" rx="8" transform="rotate(-15 0 12.0918)" fill="#23BDEE"/>
<g clip-path="url(#clip0_6_47)">
<path d="M24.0492 29.1555L25.9295 28.6517L26.4334 30.532L24.553 31.0359L24.0492 29.1555ZM25.0569 32.9162L26.9372 32.4124L27.441 34.2927L25.5607 34.7965L25.0569 32.9162ZM27.8099 28.1478L29.6902 27.644L30.194 29.5243L28.3137 30.0282L27.8099 28.1478ZM28.8175 31.9085L30.6979 31.4047L31.2017 33.285L29.3214 33.7889L28.8175 31.9085ZM31.5705 27.1402L33.4509 26.6363L33.9547 28.5167L32.0744 29.0205L31.5705 27.1402ZM32.5782 30.9009L34.4585 30.397L34.9624 32.2774L33.082 32.7812L32.5782 30.9009Z" fill="white"/>
<path d="M24.94 40.0012L38.1023 36.4743C39.1393 36.1965 39.7567 35.1272 39.4788 34.0902L35.952 20.9278C35.6741 19.8908 34.6048 19.2735 33.5678 19.5513L31.6875 20.0552L31.1837 18.1748L29.3033 18.6787L29.8071 20.559L24.1661 22.0705L23.6623 20.1902L21.782 20.694L22.2858 22.5743L20.4055 23.0782C19.3685 23.356 18.7511 24.4253 19.029 25.4623L22.5558 38.6247C22.8337 39.6617 23.903 40.279 24.94 40.0012ZM34.5755 23.312L37.5994 34.5938L24.4361 38.1208L21.4131 26.8388L34.5755 23.312Z" fill="white"/>
</g>
<defs>
<clipPath id="clip0_6_47">
<rect width="23.36" height="23.36" fill="white" transform="translate(14.697 20.5771) rotate(-15)"/>
</clipPath>
</defs>
</svg>
