<svg width="58" height="58" viewBox="0 0 58 58" fill="none" xmlns="http://www.w3.org/2000/svg">
<rect y="12.0918" width="46.7188" height="46.7188" rx="8" transform="rotate(-15 0 12.0918)" fill="#F88C3D"/>
<g clip-path="url(#clip0_6_52)">
<path d="M27.8475 36.9115L34.2434 25.8335L28.9816 22.7956L22.5857 33.8736C22.4976 34.0263 22.4526 34.1999 22.4553 34.3761L22.8077 39.5649L27.4766 37.2759C27.631 37.1902 27.7594 37.0641 27.8475 36.9115ZM36.3082 22.2572C36.5662 21.8102 36.6361 21.2789 36.5025 20.7803C36.3689 20.2817 36.0428 19.8566 35.5958 19.5984L33.7051 18.5069C33.258 18.2489 32.7268 18.179 32.2282 18.3126C31.7296 18.4461 31.3045 18.7723 31.0463 19.2193L29.9548 21.1099L35.2166 24.1479L36.3082 22.2572Z" fill="white"/>
</g>
<defs>
<clipPath id="clip0_6_52">
<rect width="23.36" height="23.36" fill="white" transform="translate(14.6969 20.5771) rotate(-15)"/>
</clipPath>
</defs>
</svg>
