<svg width="50" height="50" viewBox="0 0 50 50" fill="none" xmlns="http://www.w3.org/2000/svg">
<circle cx="25" cy="25" r="25" fill="#CB8461" fill-opacity="0.19"/>
<path d="M25.5 15.0833C24.4699 15.0833 23.4629 15.3888 22.6064 15.9611C21.7499 16.5334 21.0823 17.3468 20.6881 18.2985C20.2939 19.2502 20.1908 20.2975 20.3917 21.3078C20.5927 22.3181 21.0888 23.2461 21.8172 23.9745C22.5456 24.7029 23.4736 25.199 24.4839 25.3999C25.4942 25.6009 26.5414 25.4978 27.4931 25.1035C28.4448 24.7093 29.2583 24.0418 29.8306 23.1853C30.4029 22.3288 30.7083 21.3218 30.7083 20.2917C30.7083 18.9103 30.1596 17.5856 29.1828 16.6088C28.2061 15.6321 26.8813 15.0833 25.5 15.0833ZM25.5 23.4167C24.8819 23.4167 24.2777 23.2334 23.7638 22.89C23.2499 22.5466 22.8494 22.0586 22.6129 21.4876C22.3764 20.9165 22.3145 20.2882 22.435 19.682C22.5556 19.0758 22.8533 18.519 23.2903 18.082C23.7273 17.6449 24.2842 17.3473 24.8903 17.2267C25.4965 17.1061 26.1249 17.168 26.6959 17.4046C27.2669 17.6411 27.755 18.0416 28.0983 18.5555C28.4417 19.0694 28.625 19.6736 28.625 20.2917C28.625 21.1205 28.2958 21.9153 27.7097 22.5014C27.1237 23.0874 26.3288 23.4167 25.5 23.4167ZM34.875 34.875V33.8333C34.875 31.8995 34.1068 30.0448 32.7393 28.6774C31.3719 27.3099 29.5172 26.5417 27.5833 26.5417H23.4167C21.4828 26.5417 19.6281 27.3099 18.2607 28.6774C16.8932 30.0448 16.125 31.8995 16.125 33.8333V34.875H18.2083V33.8333C18.2083 32.452 18.7571 31.1272 19.7338 30.1505C20.7106 29.1737 22.0353 28.625 23.4167 28.625H27.5833C28.9647 28.625 30.2894 29.1737 31.2662 30.1505C32.2429 31.1272 32.7917 32.452 32.7917 33.8333V34.875H34.875Z" fill="#CB8461"/>
</svg>
