<svg width="50" height="50" viewBox="0 0 50 50" fill="none" xmlns="http://www.w3.org/2000/svg">
<circle cx="25" cy="25" r="25" fill="#CB8461" fill-opacity="0.19"/>
<path d="M25.5 15.0833C19.7563 15.0833 15.0833 19.7563 15.0833 25.5C15.0833 31.2438 19.7563 35.9167 25.5 35.9167C31.2438 35.9167 35.9167 31.2438 35.9167 25.5C35.9167 19.7563 31.2438 15.0833 25.5 15.0833ZM25.5 33.8333C20.9052 33.8333 17.1667 30.0948 17.1667 25.5C17.1667 20.9052 20.9052 17.1667 25.5 17.1667C30.0948 17.1667 33.8333 20.9052 33.8333 25.5C33.8333 30.0948 30.0948 33.8333 25.5 33.8333Z" fill="#CB8461"/>
<path d="M22.375 30.7083L30.7083 25.5L22.375 20.2917V30.7083Z" fill="#CB8461"/>
</svg>
