<svg width="115" height="22" viewBox="0 0 115 22" fill="none" xmlns="http://www.w3.org/2000/svg">
<g filter="url(#filter0_d_157_301)">
<path d="M15.9376 8.37629C15.7434 8.55417 15.6541 8.81141 15.6984 9.06369L16.365 12.5503C16.4213 12.8458 16.2893 13.1448 16.0276 13.3156C15.7711 13.4928 15.4299 13.514 15.1502 13.3723L11.8289 11.7353C11.7134 11.6772 11.5852 11.646 11.4539 11.6425H11.2507C11.1802 11.6524 11.1112 11.6737 11.0482 11.7063L7.72617 13.351C7.56194 13.429 7.37597 13.4566 7.19374 13.429C6.7498 13.3496 6.45359 12.9499 6.52633 12.5283L7.19374 9.04172C7.23798 8.78731 7.14875 8.52865 6.95452 8.34795L4.24662 5.86766C4.02015 5.66002 3.94141 5.34821 4.0449 5.06688C4.14539 4.78625 4.40185 4.58145 4.71156 4.53539L8.43858 4.02445C8.72204 3.99681 8.97101 3.83382 9.09849 3.59288L10.7408 0.411019C10.7798 0.340154 10.83 0.274958 10.8908 0.219683L10.9582 0.170077C10.9935 0.133227 11.034 0.102755 11.079 0.077952L11.1607 0.0496058L11.2882 0H11.6039C11.8859 0.0276375 12.1341 0.187085 12.2638 0.425193L13.9279 3.59288C14.0478 3.82461 14.2811 3.98547 14.5503 4.02445L18.2773 4.53539C18.5922 4.57791 18.8555 4.78342 18.9597 5.06688C19.0579 5.35105 18.9732 5.66286 18.7422 5.86766L15.9376 8.37629Z" fill="#FF9100"/>
<path d="M38.9376 8.37629C38.7434 8.55417 38.6541 8.81141 38.6984 9.06369L39.365 12.5503C39.4213 12.8458 39.2893 13.1448 39.0276 13.3156C38.7711 13.4928 38.4299 13.514 38.1502 13.3723L34.8289 11.7353C34.7134 11.6772 34.5852 11.646 34.4539 11.6425H34.2507C34.1802 11.6524 34.1112 11.6737 34.0482 11.7063L30.7262 13.351C30.5619 13.429 30.376 13.4566 30.1937 13.429C29.7498 13.3496 29.4536 12.9499 29.5263 12.5283L30.1937 9.04172C30.238 8.78731 30.1487 8.52865 29.9545 8.34795L27.2466 5.86766C27.0202 5.66002 26.9414 5.34821 27.0449 5.06688C27.1454 4.78625 27.4019 4.58145 27.7116 4.53539L31.4386 4.02445C31.722 3.99681 31.971 3.83382 32.0985 3.59288L33.7408 0.411019C33.7798 0.340154 33.83 0.274958 33.8908 0.219683L33.9582 0.170077C33.9935 0.133227 34.034 0.102755 34.079 0.077952L34.1607 0.0496058L34.2882 0H34.6039C34.8859 0.0276375 35.1341 0.187085 35.2638 0.425193L36.9279 3.59288C37.0478 3.82461 37.2811 3.98547 37.5503 4.02445L41.2773 4.53539C41.5922 4.57791 41.8555 4.78342 41.9597 5.06688C42.0579 5.35105 41.9732 5.66286 41.7422 5.86766L38.9376 8.37629Z" fill="#FF9100"/>
<path d="M61.9376 8.37629C61.7434 8.55417 61.6541 8.81141 61.6984 9.06369L62.365 12.5503C62.4213 12.8458 62.2893 13.1448 62.0276 13.3156C61.7711 13.4928 61.4299 13.514 61.1502 13.3723L57.8289 11.7353C57.7134 11.6772 57.5852 11.646 57.4539 11.6425H57.2507C57.1802 11.6524 57.1112 11.6737 57.0482 11.7063L53.7262 13.351C53.5619 13.429 53.376 13.4566 53.1937 13.429C52.7498 13.3496 52.4536 12.9499 52.5263 12.5283L53.1937 9.04172C53.238 8.78731 53.1487 8.52865 52.9545 8.34795L50.2466 5.86766C50.0202 5.66002 49.9414 5.34821 50.0449 5.06688C50.1454 4.78625 50.4019 4.58145 50.7116 4.53539L54.4386 4.02445C54.722 3.99681 54.971 3.83382 55.0985 3.59288L56.7408 0.411019C56.7798 0.340154 56.83 0.274958 56.8908 0.219683L56.9582 0.170077C56.9935 0.133227 57.034 0.102755 57.079 0.077952L57.1607 0.0496058L57.2882 0H57.6039C57.8859 0.0276375 58.1341 0.187085 58.2638 0.425193L59.9279 3.59288C60.0478 3.82461 60.2811 3.98547 60.5503 4.02445L64.2773 4.53539C64.5922 4.57791 64.8555 4.78342 64.9597 5.06688C65.0579 5.35105 64.9732 5.66286 64.7422 5.86766L61.9376 8.37629Z" fill="#FF9100"/>
<path d="M84.9376 8.37629C84.7434 8.55417 84.6541 8.81141 84.6984 9.06369L85.365 12.5503C85.4213 12.8458 85.2893 13.1448 85.0276 13.3156C84.7711 13.4928 84.4299 13.514 84.1502 13.3723L80.8289 11.7353C80.7134 11.6772 80.5852 11.646 80.4539 11.6425H80.2507C80.1802 11.6524 80.1112 11.6737 80.0482 11.7063L76.7262 13.351C76.5619 13.429 76.376 13.4566 76.1937 13.429C75.7498 13.3496 75.4536 12.9499 75.5263 12.5283L76.1937 9.04172C76.238 8.78731 76.1487 8.52865 75.9545 8.34795L73.2466 5.86766C73.0202 5.66002 72.9414 5.34821 73.0449 5.06688C73.1454 4.78625 73.4019 4.58145 73.7116 4.53539L77.4386 4.02445C77.722 3.99681 77.971 3.83382 78.0985 3.59288L79.7408 0.411019C79.7798 0.340154 79.83 0.274958 79.8908 0.219683L79.9582 0.170077C79.9935 0.133227 80.034 0.102755 80.079 0.077952L80.1607 0.0496058L80.2882 0H80.6039C80.8859 0.0276375 81.1341 0.187085 81.2638 0.425193L82.9279 3.59288C83.0478 3.82461 83.2811 3.98547 83.5503 4.02445L87.2773 4.53539C87.5922 4.57791 87.8555 4.78342 87.9597 5.06688C88.0579 5.35105 87.9732 5.66286 87.7422 5.86766L84.9376 8.37629Z" fill="#FF9100"/>
<path d="M107.938 8.37629C107.743 8.55417 107.654 8.81141 107.698 9.06369L108.365 12.5503C108.421 12.8458 108.289 13.1448 108.028 13.3156C107.771 13.4928 107.43 13.514 107.15 13.3723L103.829 11.7353C103.713 11.6772 103.585 11.646 103.454 11.6425H103.251C103.18 11.6524 103.111 11.6737 103.048 11.7063L99.7262 13.351C99.5619 13.429 99.376 13.4566 99.1937 13.429C98.7498 13.3496 98.4536 12.9499 98.5263 12.5283L99.1937 9.04172C99.238 8.78731 99.1487 8.52865 98.9545 8.34795L96.2466 5.86766C96.0202 5.66002 95.9414 5.34821 96.0449 5.06688C96.1454 4.78625 96.4019 4.58145 96.7116 4.53539L100.439 4.02445C100.722 3.99681 100.971 3.83382 101.098 3.59288L102.741 0.411019C102.78 0.340154 102.83 0.274958 102.891 0.219683L102.958 0.170077C102.993 0.133227 103.034 0.102755 103.079 0.077952L103.161 0.0496058L103.288 0H103.604C103.886 0.0276375 104.134 0.187085 104.264 0.425193L105.928 3.59288C106.048 3.82461 106.281 3.98547 106.55 4.02445L110.277 4.53539C110.592 4.57791 110.855 4.78342 110.96 5.06688C111.058 5.35105 110.973 5.66286 110.742 5.86766L107.938 8.37629Z" fill="#FF9100"/>
</g>
<defs>
<filter id="filter0_d_157_301" x="0" y="0" width="115" height="21.4653" filterUnits="userSpaceOnUse" color-interpolation-filters="sRGB">
<feFlood flood-opacity="0" result="BackgroundImageFix"/>
<feColorMatrix in="SourceAlpha" type="matrix" values="0 0 0 0 0 0 0 0 0 0 0 0 0 0 0 0 0 0 127 0" result="hardAlpha"/>
<feOffset dy="4"/>
<feGaussianBlur stdDeviation="2"/>
<feComposite in2="hardAlpha" operator="out"/>
<feColorMatrix type="matrix" values="0 0 0 0 0 0 0 0 0 0 0 0 0 0 0 0 0 0 0.25 0"/>
<feBlend mode="normal" in2="BackgroundImageFix" result="effect1_dropShadow_157_301"/>
<feBlend mode="normal" in="SourceGraphic" in2="effect1_dropShadow_157_301" result="shape"/>
</filter>
</defs>
</svg>
