<svg width="50" height="50" viewBox="0 0 50 50" fill="none" xmlns="http://www.w3.org/2000/svg">
<circle cx="25" cy="25" r="25" fill="#CB8461" fill-opacity="0.19"/>
<path d="M34.1354 21.6354L29.6667 26.1042L28.3125 24.7604L26.8438 26.2396L29.6563 29.0521L35.6146 23.1146L34.1354 21.6354ZM17.1667 21.3333C17.1538 21.884 17.2529 22.4316 17.4577 22.9429C17.6626 23.4542 17.969 23.9187 18.3585 24.3082C18.748 24.6977 19.2125 25.0041 19.7238 25.209C20.2351 25.4138 20.7827 25.5128 21.3333 25.5C21.884 25.5128 22.4316 25.4138 22.9429 25.209C23.4542 25.0041 23.9187 24.6977 24.3082 24.3082C24.6977 23.9187 25.0041 23.4542 25.209 22.9429C25.4138 22.4316 25.5128 21.884 25.5 21.3333C25.5128 20.7826 25.4138 20.2351 25.209 19.7238C25.0041 19.2124 24.6977 18.748 24.3082 18.3585C23.9187 17.969 23.4542 17.6625 22.9429 17.4577C22.4316 17.2528 21.884 17.1538 21.3333 17.1667C20.7827 17.1538 20.2351 17.2528 19.7238 17.4577C19.2125 17.6625 18.748 17.969 18.3585 18.3585C17.969 18.748 17.6626 19.2124 17.4577 19.7238C17.2529 20.2351 17.1538 20.7826 17.1667 21.3333ZM23.4167 21.3333C23.4301 21.6105 23.3854 21.8873 23.2854 22.1462C23.1854 22.405 23.0325 22.6401 22.8363 22.8362C22.6401 23.0324 22.405 23.1854 22.1462 23.2854C21.8874 23.3853 21.6105 23.4301 21.3333 23.4167C21.0562 23.4301 20.7793 23.3853 20.5205 23.2854C20.2617 23.1854 20.0266 23.0324 19.8304 22.8362C19.6342 22.6401 19.4812 22.405 19.3813 22.1462C19.2813 21.8873 19.2366 21.6105 19.25 21.3333C19.2366 21.0562 19.2813 20.7793 19.3813 20.5205C19.4812 20.2617 19.6342 20.0266 19.8304 19.8304C20.0266 19.6342 20.2617 19.4812 20.5205 19.3813C20.7793 19.2813 21.0562 19.2366 21.3333 19.25C21.6105 19.2366 21.8874 19.2813 22.1462 19.3813C22.405 19.4812 22.6401 19.6342 22.8363 19.8304C23.0325 20.0266 23.1854 20.2617 23.2854 20.5205C23.3854 20.7793 23.4301 21.0562 23.4167 21.3333ZM17.1667 31.75C17.1667 30.9212 17.4959 30.1263 18.082 29.5403C18.668 28.9542 19.4629 28.625 20.2917 28.625H22.375C23.2038 28.625 23.9987 28.9542 24.5847 29.5403C25.1708 30.1263 25.5 30.9212 25.5 31.75V32.7917H27.5833V31.75C27.5833 31.066 27.4486 30.3888 27.1869 29.7569C26.9251 29.1249 26.5415 28.5508 26.0579 28.0671C25.5742 27.5835 25.0001 27.1999 24.3682 26.9381C23.7362 26.6764 23.059 26.5417 22.375 26.5417H20.2917C18.9103 26.5417 17.5856 27.0904 16.6088 28.0671C15.6321 29.0439 15.0833 30.3687 15.0833 31.75V32.7917H17.1667V31.75Z" fill="#CB8461"/>
</svg>
